<svg class="svgsprite" version="1.1" xmlns="http://www.w3.org/2000/svg">
	<symbol id="twitter" viewBox="0 0 512 512"><path d="M492 109.5c-17.4 7.7-36 12.9-55.6 15.3 20-12 35.4-31 42.6-53.6-18.7 11.1-39.4 19.2-61.5 23.5C399.8 75.8 374.6 64 346.8 64c-53.5 0-96.8 43.4-96.8 96.9 0 7.6.8 15 2.5 22.1-80.5-4-151.9-42.6-199.6-101.3-8.3 14.3-13.1 31-13.1 48.7 0 33.6 17.2 63.3 43.2 80.7-16-.4-31-4.8-44-12.1v1.2c0 47 33.4 86.1 77.7 95-8.1 2.2-16.7 3.4-25.5 3.4-6.2 0-12.3-.6-18.2-1.8 12.3 38.5 48.1 66.5 90.5 67.3-33.1 26-74.9 41.5-120.3 41.5-7.8 0-15.5-.5-23.1-1.4C62.8 432 113.7 448 168.3 448 346.6 448 444 300.3 444 172.2c0-4.2-.1-8.4-.3-12.5C462.6 146 479 129 492 109.5z"/></symbol>
	<symbol id="facebook" viewBox="0 0 512 512"><path d="M288 192v-38.1c0-17.2 3.8-25.9 30.5-25.9H352V64h-55.9c-68.5 0-91.1 31.4-91.1 85.3V192h-45v64h45v192h83V256h56.4l7.6-64h-64z"/></symbol>
	<symbol id="dropbox" viewBox="0 0 512 512"><path d="M177 77L64 150.9l78.1 62.7L256 143.1zM64 276.3l113 73.9 79-66.1-113.9-70.5zM256 284.1l79 66.1 113-73.9-78.1-62.7zM448 150.9L335 77l-79 66.1 113.9 70.5zM256.2 298.3l-79.8 66-34.4-22.2V367l114 68 114-68v-24.9l-34.2 22.2z"/></symbol>
	<symbol id="share-ion" viewBox="0 0 512 512"><path d="M383.822 344.427c-16.045 0-31.024 5.326-41.721 15.979l-152.957-88.42c1.071-5.328 2.142-9.593 2.142-14.919 0-5.328-1.071-9.593-2.142-14.919l150.826-87.35c11.762 10.653 26.741 17.041 43.852 17.041 35.295 0 64.178-28.766 64.178-63.92C448 72.767 419.117 44 383.822 44c-35.297 0-64.179 28.767-64.179 63.92 0 5.327 1.065 9.593 2.142 14.919l-150.821 87.35c-11.767-10.654-26.741-17.041-43.856-17.041-35.296 0-63.108 28.766-63.108 63.92 0 35.153 28.877 63.92 64.178 63.92 17.115 0 32.089-6.389 43.856-17.042l151.891 88.421c-1.076 4.255-2.141 8.521-2.141 13.847 0 34.094 27.806 61.787 62.037 61.787 34.229 0 62.036-27.693 62.036-61.787.001-34.094-27.805-61.787-62.035-61.787z"/></symbol>
	<symbol id="copy" viewBox="0 0 512 512"><path d="M296 48H176.5C154.4 48 136 65.4 136 87.5V96h-7.5C106.4 96 88 113.4 88 135.5v288c0 22.1 18.4 40.5 40.5 40.5h208c22.1 0 39.5-18.4 39.5-40.5V416h8.5c22.1 0 39.5-18.4 39.5-40.5V176L296 48zm0 44.6l83.4 83.4H296V92.6zm48 330.9c0 4.7-3.4 8.5-7.5 8.5h-208c-4.4 0-8.5-4.1-8.5-8.5v-288c0-4.1 3.8-7.5 8.5-7.5h7.5v255.5c0 22.1 10.4 32.5 32.5 32.5H344v7.5zm48-48c0 4.7-3.4 8.5-7.5 8.5h-208c-4.4 0-8.5-4.1-8.5-8.5v-288c0-4.1 3.8-7.5 8.5-7.5H264v128h128v167.5z"/></symbol>
	<symbol id="clockwise" viewBox="0 0 16 16"><path fill-rule="evenodd" d="M3.17 6.706a5 5 0 017.103-3.16.5.5 0 10.454-.892A6 6 0 1013.455 5.5a.5.5 0 00-.91.417 5 5 0 11-9.375.789z" clip-rule="evenodd"/><path fill-rule="evenodd" d="M8.147.146a.5.5 0 01.707 0l2.5 2.5a.5.5 0 010 .708l-2.5 2.5a.5.5 0 11-.707-.708L10.293 3 8.147.854a.5.5 0 010-.708z" clip-rule="evenodd"/></symbol>
	<symbol id="counterclockwise" viewBox="0 0 16 16"><path fill-rule="evenodd" d="M12.83 6.706a5 5 0 00-7.103-3.16.5.5 0 11-.454-.892A6 6 0 112.545 5.5a.5.5 0 11.91.417 5 5 0 109.375.789z" clip-rule="evenodd"/><path fill-rule="evenodd" d="M7.854.146a.5.5 0 00-.708 0l-2.5 2.5a.5.5 0 000 .708l2.5 2.5a.5.5 0 10.708-.708L5.707 3 7.854.854a.5.5 0 000-.708z" clip-rule="evenodd"/></symbol>
</svg>
